<svg width="20" height="20" viewBox="0 0 20 20" fill="none" xmlns="http://www.w3.org/2000/svg">
<path opacity="0.4" d="M18.3332 13.2834C18.3332 15.6084 16.4666 17.4917 14.1416 17.5001H14.1332H5.8749C3.55823 17.5001 1.66656 15.6251 1.66656 13.3001V13.2917C1.66656 13.2917 1.67156 9.60341 1.67823 7.74841C1.67906 7.40008 2.07906 7.20508 2.35156 7.42175C4.33156 8.99258 7.8724 11.8567 7.91656 11.8942C8.50823 12.3684 9.25823 12.6359 10.0249 12.6359C10.7916 12.6359 11.5416 12.3684 12.1332 11.8851C12.1774 11.8559 15.6391 9.07758 17.6491 7.48091C17.9224 7.26341 18.3241 7.45841 18.3249 7.80591C18.3332 9.64675 18.3332 13.2834 18.3332 13.2834Z" fill="#0081FA"/>
<path d="M17.8967 4.72809C17.175 3.36809 15.755 2.49976 14.1917 2.49976H5.875C4.31167 2.49976 2.89167 3.36809 2.17 4.72809C2.00834 5.03226 2.085 5.41142 2.35417 5.62642L8.54167 10.5756C8.975 10.9256 9.5 11.0998 10.025 11.0998C10.0283 11.0998 10.0308 11.0998 10.0333 11.0998C10.0358 11.0998 10.0392 11.0998 10.0417 11.0998C10.5667 11.0998 11.0917 10.9256 11.525 10.5756L17.7125 5.62642C17.9817 5.41142 18.0583 5.03226 17.8967 4.72809Z" fill="#0081FA"/>
</svg>
